PathFileType	4	(X/Y/Z)	C:\Users\u0145647\OneDrive - KU Leuven\KU Leuven\c3d2osim\CP4\T0\Data\Processed\ViconC3D_CP4_2\CP4_T0_cmj_T2_gapFilled.trc
DataRate	CameraRate	NumFrames	NumMarkers	Units	OrigDataRate	OrigDataStartFrame	OrigNumFrames
100.000000	100.000000	5	47	mm	100.000000	1	638
Frame#	Time	C7			T10			CLAV			STRN			LSHO			RSHO			RBAK			LASI			RASI			LPSI			RPSI			LLAT			RLAT			LF1			LF2			LF3			LTHI			LKNE			LMEK			RF1			RF2			RF3			RTHI			RKNE			RMEK			LT1			LT2			LT3			LTIB			LANK			LMM			RT1			RT2			RT3			RTIB			RANK			RMM			LHEE			LSTL			LLCA			LTOE			LCM5			RHEE			RSTL			RLCA			RTOE			RCM5
		X1	Y1	Z1	X2	Y2	Z2	X3	Y3	Z3	X4	Y4	Z4	X5	Y5	Z5	X6	Y6	Z6	X7	Y7	Z7	X8	Y8	Z8	X9	Y9	Z9	X10	Y10	Z10	X11	Y11	Z11	X12	Y12	Z12	X13	Y13	Z13	X14	Y14	Z14	X15	Y15	Z15	X16	Y16	Z16	X17	Y17	Z17	X18	Y18	Z18	X19	Y19	Z19	X20	Y20	Z20	X21	Y21	Z21	X22	Y22	Z22	X23	Y23	Z23	X24	Y24	Z24	X25	Y25	Z25	X26	Y26	Z26	X27	Y27	Z27	X28	Y28	Z28	X29	Y29	Z29	X30	Y30	Z30	X31	Y31	Z31	X32	Y32	Z32	X33	Y33	Z33	X34	Y34	Z34	X35	Y35	Z35	X36	Y36	Z36	X37	Y37	Z37	X38	Y38	Z38	X39	Y39	Z39	X40	Y40	Z40	X41	Y41	Z41	X42	Y42	Z42	X43	Y43	Z43	X44	Y44	Z44	X45	Y45	Z45	X46	Y46	Z46	X47	Y47	Z47

1	0	-152.7	1440.8	-324.5	-123.04	1184.7	-358.04	-161.54	1358.6	-209.52	-152.73	1207.8	-181.31	50.898	1410.6	-224.94	-344.01	1385.6	-313.29	-257.33	1351.3	-383.49	-58.2	926.51	-172.38	-254.49	922.51	-222.26	-81.369	964.56	-353.44	-152.04	968.12	-372.39	3.6578	996.64	-220.68	-286.43	994.3	-291.46	59.965	681.43	-204.31	54.869	725.35	-218.73	64.875	676.65	-238.29	119.6	611.67	-224.75	69.717	473.63	-212.95	NaN	NaN	NaN	-318.38	651.41	-306.31	-322.77	684.87	-286.19	-299.58	682.67	-344	-361.36	592.13	-312.2	-313.38	464.22	-269.1	NaN	NaN	NaN	118.28	316.98	-298.57	103.27	345.84	-246.73	106.53	360.36	-296.68	159.26	246.57	-254.79	137.63	84.777	-355.14	53.239	75.837	-323.55	-335.48	320.33	-317.38	-327.82	359.69	-285.45	-322.16	368	-336.09	-385.87	254.4	-326.57	-336.01	73.3	-347.55	-262.68	77.416	-299.2	85.985	60.412	-396.12	62.117	46.772	-329.2	138.05	54.913	-352.07	133.47	47.414	-223.86	175.69	39.78	-246.85	-278.72	62.661	-375.59	-270.13	41.473	-304.03	-340	47.727	-341.42	-371.76	45.239	-219.15	-408.16	32.364	-266.46
2	0.01	-152.75	1440.9	-324.48	-123.04	1184.8	-358.26	-161.56	1358.5	-209.71	-152.83	1207.7	-181.56	50.843	1410.5	-224.99	-343.98	1385.6	-313.61	-257.24	1351.3	-383.68	-58.251	926.48	-172.67	-254.56	922.48	-222.6	-81.396	964.57	-353.71	-152.09	968.07	-372.64	3.6099	996.68	-220.9	-286.49	994.29	-291.78	59.893	681.42	-204.47	54.797	725.3	-218.86	65.648	677.14	-238.95	119.56	611.68	-224.97	69.643	473.63	-212.96	NaN	NaN	NaN	-318.43	651.41	-306.57	-322.83	684.91	-286.46	-299.61	682.68	-344.25	-361.36	592.11	-312.49	-313.41	464.22	-269.26	NaN	NaN	NaN	118.25	316.98	-298.54	103.22	345.87	-246.74	106.52	360.38	-296.67	159.24	246.58	-254.7	137.67	84.799	-355.03	53.227	75.817	-323.58	-335.54	320.33	-317.47	-327.87	359.71	-285.58	-322.2	367.99	-336.24	-385.9	254.39	-326.64	-336.01	73.307	-347.57	-262.67	77.416	-299.21	85.988	60.418	-396.1	62.086	46.721	-329.21	138.04	54.911	-352.08	133.44	47.408	-223.84	175.66	39.785	-246.92	-278.72	62.633	-375.6	-270.13	41.46	-304.05	-340.03	47.729	-341.42	-371.73	45.222	-219.14	-408.18	32.36	-266.46
3	0.02	-152.75	1440.7	-324.53	-123.11	1184.9	-358.44	-161.63	1358.4	-209.89	-152.93	1207.5	-181.83	50.752	1410.3	-225.03	-343.95	1385.7	-313.9	-257.23	1351.5	-384.07	-58.33	926.47	-172.97	-254.62	922.48	-222.98	-81.456	964.57	-353.99	-152.15	968.13	-372.92	3.5543	996.65	-221.13	-286.56	994.28	-292.1	59.913	681.55	-204.64	54.727	725.3	-218.97	65.488	676.99	-238.9	119.54	611.62	-224.87	69.557	473.62	-213.01	NaN	NaN	NaN	-318.47	651.42	-306.85	-322.91	684.91	-286.75	-299.67	682.68	-344.5	-361.38	592.09	-312.78	-313.46	464.24	-269.48	NaN	NaN	NaN	118.2	317.01	-298.56	103.14	345.83	-246.74	106.66	360.6	-297.01	159.13	246.61	-254.73	137.64	84.778	-355	53.22	75.823	-323.61	-335.56	320.32	-317.61	-327.93	359.72	-285.71	-322.22	367.96	-336.38	-385.94	254.37	-326.74	-336.04	73.31	-347.57	-262.68	77.473	-299.24	85.985	60.388	-396.1	62.094	46.73	-329.2	138.04	54.911	-352.06	133.4	47.41	-223.83	175.61	39.828	-246.84	-278.73	62.632	-375.61	-270.14	41.542	-304.05	-340.04	47.698	-341.45	-371.74	45.223	-219.16	-408.19	32.353	-266.48
4	0.03	-152.8	1440.7	-324.55	-123.15	1184.9	-358.6	-161.7	1358.2	-210.04	-153.03	1207.4	-182.08	50.647	1410.1	-225.04	-343.96	1385.7	-314.17	-257.16	1351.6	-384.25	-58.381	926.44	-173.26	-254.66	922.45	-223.33	-81.458	964.54	-354.21	-152.16	968.15	-373.23	3.4774	996.6	-221.4	-286.62	994.29	-292.43	59.74	681.44	-204.67	54.577	725.29	-219.02	65.412	677.03	-239.04	119.46	611.58	-224.9	69.485	473.62	-213.02	NaN	NaN	NaN	-318.53	651.42	-307.11	-322.96	684.95	-287.05	-299.75	682.66	-344.79	-361.44	592.07	-313.05	-313.52	464.26	-269.62	NaN	NaN	NaN	118.16	316.98	-298.59	103.09	345.89	-246.76	106.42	360.3	-296.63	159.15	246.63	-254.76	137.64	84.787	-355.05	53.194	75.807	-323.61	-335.27	320.2	-317.72	-327.96	359.74	-285.82	-322.26	367.98	-336.49	-385.98	254.35	-326.81	-336.06	73.285	-347.59	-262.7	77.438	-299.24	85.964	60.391	-396.1	62.081	46.729	-329.21	138.02	54.929	-352.09	133.39	47.414	-223.81	175.64	39.843	-246.9	-278.75	62.598	-375.63	-270.15	41.58	-304.09	-340.03	47.684	-341.45	-371.76	45.238	-219.17	-408.19	32.352	-266.47
5	0.04	-152.84	1440.7	-324.55	-123.18	1184.9	-358.79	-161.74	1358.1	-210.24	-153.1	1207.3	-182.34	50.583	1409.9	-225.08	-343.94	1385.8	-314.41	-257.09	1351.6	-384.41	-58.469	926.42	-173.52	-254.71	922.46	-223.67	-81.488	964.5	-354.51	-152.15	968.13	-373.57	3.4003	996.53	-221.59	-286.69	994.29	-292.79	59.642	681.48	-204.79	54.412	725.27	-219.13	65.29	677	-239.08	119.42	611.64	-224.99	69.419	473.63	-213.12	NaN	NaN	NaN	-318.59	651.44	-307.36	-323.03	684.95	-287.32	-299.95	682.58	-345.3	-361.51	592.05	-313.27	-313.57	464.26	-269.75	NaN	NaN	NaN	118.11	316.98	-298.61	103.06	345.87	-246.79	106.54	360.56	-297.1	158.9	246.83	-254.73	137.59	84.771	-355.03	53.242	75.801	-323.7	-335.64	320.31	-317.76	-327.99	359.71	-285.89	-322.26	367.95	-336.6	-386.01	254.32	-326.89	-336.07	73.251	-347.61	-262.72	77.461	-299.25	85.981	60.384	-396.1	62.091	46.701	-329.21	138.03	54.939	-352.05	133.37	47.424	-223.79	175.56	39.816	-246.84	-278.76	62.609	-375.61	-270.14	41.554	-304.09	-340.04	47.672	-341.47	-371.76	45.221	-219.16	-408.2	32.348	-266.49
